<svg width="308" height="134" viewBox="0 0 308 134" fill="none" xmlns="http://www.w3.org/2000/svg">
<path d="M1.47268 110.656C0.365219 106.032 7.35347 104.565 10.6594 106.768C11.3129 108.92 9.20016 106.923 7.5879 107.716C6.48036 108.261 3.66795 110.262 8.96335 113.03C15.852 116.63 17.3981 113.102 18.8407 115.523C20.2834 117.944 2.95517 116.845 1.47268 110.656Z" fill="#F5CFC5"/>
<path d="M15.5329 100.111C15.5329 96.6581 21.6145 96.642 23.7708 98.7223C23.7402 100.384 22.5189 98.6255 20.9702 98.9712C19.9064 99.2087 17.0074 100.549 20.6971 103.039C25.4927 106.276 28.3281 105.106 28.2281 106.276C28.1281 107.446 15.5328 107.045 15.5329 100.111Z" fill="#F5CFC5"/>
<path d="M29.2933 95.9016C29.2933 93.1227 33.5837 93.4243 35.0934 94.8539C35.072 96.005 34.2169 94.7935 33.1328 95.0413C32.388 95.2115 30.9571 97.0867 33.1328 98.3525C36.0919 100.074 38.2841 99.2518 38.2141 100.063C38.1441 100.874 29.2932 102.112 29.2933 95.9016Z" fill="#F5CFC5"/>
<path d="M185.001 102.193C185.001 102.193 184.918 102.377 184.728 102.663C183.81 104.163 180.652 108.739 176.274 108.739C170.165 108.739 167.656 105.684 166.674 101.757C164.492 93.0296 175.401 20.5919 171.474 13.1736C168.332 7.23898 164.022 14.0821 156.637 22.8096C149.253 31.537 108.688 89.1807 84.8528 111.586C61.0256 133.983 49.1081 133.983 34.5809 133.983H34.5664C20.0327 133.983 0.839414 127.444 1.75783 122.852C2.5298 118.992 4.05753 129.399 34.5664 126.364C65.0754 123.328 106.906 62.1798 130.139 31.9766C133.806 27.2096 147.301 10.0483 158.742 3.37436C170.182 -3.29959 179.975 4.68983 178.892 16.6647C177.81 28.6396 172.783 80.8112 172.783 80.8112C172.492 89.1023 168.605 104.485 175.401 105.684C181.367 106.737 183.946 103.839 184.728 102.663C184.908 102.369 185.001 102.193 185.001 102.193Z" fill="#F5CFC5"/>
<path d="M287.603 11.9551C292.06 15.1844 290.515 20.781 288.766 23.84C286.584 26.6397 286.62 33.3505 287.603 31.1878C291.162 25.4038 297.98 11.9549 291.307 5.75803C281.594 -3.26031 265.565 -2.82241 248.403 15.2921C223.138 41.9607 205.977 69.1594 190.729 94.4615C248.403 33.8835 268.18 -2.11627 287.603 11.9551Z" fill="#F5CFC5"/>
<path d="M286.224 46.3868C282.893 43.8467 283.448 39.5075 283.911 37.3908C284.026 36.8617 285.299 35.8033 287.611 34.2158L288.537 32.6283C288.537 32.6283 290.387 37.3908 292.237 38.9784C294.087 40.5659 291.775 49.0326 290.849 49.0326C289.924 49.0326 289.554 48.9268 286.224 46.3868Z" fill="#FFEEE9" stroke="#F5CFC5"/>
<path d="M280.504 32.1642C280.573 29.2863 284.246 26.2551 286.073 25.0992C288.729 27.365 288.578 32.1012 287.449 35.0383C280.948 39.3606 282.319 39.2352 276.213 38.9424C275.239 38.8957 273.988 38.9948 274.553 37.5262C275.117 36.0577 280.418 35.7616 280.504 32.1642Z" fill="#FFEEE9" stroke="#F5CFC5" stroke-width="1.5" stroke-linejoin="round"/>
<path d="M302.883 34.3689C302.645 31.2708 294.148 26.1079 292.553 26.2962C290.959 26.4845 290.16 30.13 288.398 33.0592C286.562 36.1116 290.409 38.0727 291.9 39.5641C293.391 41.0556 299.951 47.7548 303.061 46.1071C303.954 45.6346 303.959 43.3581 303.706 42.2091C303.504 41.2899 303.418 40.691 303.787 40.7331C306.285 39.4101 303.12 37.4669 302.883 34.3689Z" fill="#FFEEE9" stroke="#F5CFC5"/>
<path d="M284.916 24.8527C284.476 23.5277 285.83 22.0667 286.134 21.5976C286.438 21.1285 287.546 20.5064 289.336 20.1656C291.931 19.6716 297.717 28.7854 293.854 28.2294C291.642 27.9109 291.975 30.8763 289.877 31.4816C287.778 32.0868 285.356 26.1778 284.916 24.8527Z" fill="#F5CFC5"/>
<path d="M285.853 26.2889C285.301 25.7363 282.677 27.8035 280.602 32.6311C279.363 30.2839 283.369 26.1943 285.303 24.6324C285.991 25.7831 286.404 26.8414 285.853 26.2889Z" fill="#F5CFC5"/>
<path d="M283.759 13.358C284.228 9.60842 290.79 23.3176 290.79 23.3176C290.79 23.3176 289.618 23.9041 285.517 20.9744C281.416 18.0448 283.173 18.0449 283.759 13.358Z" fill="#FFEEE9" stroke="#F5CFC5"/>
</svg>
